<svg width="418" height="244" viewBox="0 0 418 244" fill="none" xmlns="http://www.w3.org/2000/svg">
<path d="M342 83L343.051 79.0228L353.058 67.9722L354.233 66.6884L355.559 65.2032C355.759 64.9515 356.11 64.5236 356.535 63.9446C356.933 63.4462 357.277 62.9061 357.561 62.3336C357.8 61.841 357.993 61.3269 358.136 60.7981C358.418 60.0436 358.418 59.2116 358.136 58.457C357.87 58.0114 357.375 57.7573 356.86 57.8026H356.56C354.959 57.9536 353.808 59.4136 353.058 62.1825L352.707 63.5167H347.254L347.629 62.107C347.969 60.8412 348.447 59.6171 349.055 58.457C349.618 57.4068 350.335 56.4479 351.181 55.6126C352.001 54.785 352.98 54.1341 354.058 53.6995C355.285 53.2538 356.581 53.0322 357.886 53.045C359.858 52.8 361.821 53.5656 363.114 55.084C364.11 56.8422 364.275 58.9553 363.565 60.8484C363.343 61.6734 363.042 62.4743 362.664 63.2398C362.273 64.0397 361.803 64.7985 361.263 65.5053C360.688 66.2353 360.187 66.8646 359.737 67.3932L357.936 69.3566L357.386 69.9104L349.43 78.5193H358.061L356.885 83H342Z" fill="#4F4F4F"/>
<path fill-rule="evenodd" clip-rule="evenodd" d="M362.83 80.6839C364.002 82.3235 365.982 83.1973 367.993 82.9622C370.388 83.0516 372.726 82.2276 374.529 80.6591C376.265 79.0132 377.472 76.8932 377.996 74.567L381.513 61.5655C382.254 59.5371 382.146 57.2986 381.214 55.3496C380.05 53.6702 378.036 52.7805 376 53.0465C373.634 52.9668 371.325 53.781 369.54 55.3248C367.756 57.0099 366.515 59.1814 365.973 61.5655L362.456 74.567C361.738 76.5717 361.873 78.7802 362.83 80.6839ZM372.433 74.3441C371.81 76.7958 370.737 78.0093 369.315 78.0093V78.1083C367.893 78.1083 367.519 76.8949 368.143 74.567L371.56 61.8379C371.597 61.7093 371.641 61.591 371.682 61.4815C371.75 61.296 371.81 61.1362 371.81 60.9959L372.109 60.1539C372.22 59.8669 372.362 59.5928 372.533 59.3367L373.082 58.6681C373.286 58.4612 373.533 58.3007 373.805 58.1975C374.088 58.0763 374.395 58.0172 374.703 58.0242C375.1 57.9977 375.492 58.1216 375.801 58.3709C376.064 58.642 376.2 59.0106 376.175 59.3862C376.214 59.7733 376.214 60.1632 376.175 60.5502C376.1 60.8969 376 61.3179 375.876 61.8379L372.433 74.3441Z" fill="#4F4F4F"/>
<path d="M378 83L379.046 79.0226L389.004 67.9714L390.174 66.6875L391.493 65.2023L392.489 63.9436C392.87 63.439 393.203 62.8996 393.485 62.3325C393.723 61.84 393.915 61.3258 394.058 60.7969C394.338 60.0424 394.338 59.2103 394.058 58.4558C393.797 58.0054 393.301 57.7497 392.788 57.8013H392.489C390.921 57.9523 389.751 59.4124 389.029 62.1815L388.68 63.5157H383.253L383.626 62.1059C383.946 60.8374 384.414 59.612 385.02 58.4558C385.589 57.411 386.302 56.4532 387.137 55.6112C387.982 54.772 388.991 54.1204 390.099 53.698C391.321 53.2549 392.61 53.0333 393.908 53.0435C395.878 52.8035 397.836 53.5674 399.136 55.0825C400.115 56.8457 400.27 58.9572 399.559 60.8473C399.339 61.6723 399.039 62.4733 398.663 63.2388C398.274 64.0387 397.807 64.7976 397.269 65.5044C396.696 66.2344 396.199 66.8637 395.75 67.3924L393.958 69.3559L393.41 69.9097L385.494 78.5191H394.107L392.912 83H378Z" fill="#4F4F4F"/>
<path d="M396 83L397.07 79.0226L407.02 67.9714C407.02 67.8204 407.517 67.4176 408.164 66.6876C408.811 65.9576 409.284 65.4793 409.483 65.2024C409.682 64.9254 410.03 64.5227 410.478 63.9437C410.865 63.439 411.207 62.8998 411.498 62.3326C411.725 61.8354 411.916 61.3222 412.07 60.797C412.326 60.0381 412.326 59.2148 412.07 58.4559C411.801 58.0146 411.312 57.7621 410.801 57.8014H410.503C408.91 57.9524 407.766 59.4125 407.02 62.1815L406.672 63.5157H401.249L401.622 62.106C401.96 60.8402 402.436 59.616 403.04 58.4559C403.599 57.4056 404.312 56.4466 405.154 55.6113C405.999 54.7721 407.007 54.1205 408.114 53.6981C409.335 53.2524 410.623 53.0307 411.92 53.0436C413.881 52.8032 415.831 53.5679 417.119 55.0826C418.109 56.8409 418.273 58.9541 417.567 60.8473C417.347 61.6723 417.047 62.4733 416.672 63.2388C416.283 64.0444 415.807 64.8042 415.254 65.5044C414.707 66.2261 414.209 66.8554 413.761 67.3924L411.97 69.356L411.423 69.9098L403.512 78.5191H412.02L410.851 83H396Z" fill="#4F4F4F"/>
<path d="M19.1681 243.996C18.1051 244.009 17.0459 243.868 16.025 243.578C15.2231 243.36 14.4832 242.964 13.8625 242.421C13.304 241.899 12.8592 241.271 12.5549 240.576C12.225 239.795 12.046 238.96 12.0268 238.115C12.0014 237.812 12.0014 237.508 12.0268 237.205C11.9911 236.524 11.9911 235.843 12.0268 235.162L13.0327 225.787C13.1503 224.522 13.4204 223.275 13.8373 222.072C14.1857 221.059 14.7323 220.123 15.4466 219.316C16.1943 218.509 17.1496 217.914 18.2126 217.593C19.4579 217.175 20.7688 216.975 22.085 217.003C23.1101 216.99 24.1325 217.106 25.1276 217.347C25.8898 217.544 26.601 217.896 27.2147 218.38C27.7422 218.823 28.1702 219.368 28.4719 219.98C28.7857 220.645 28.965 221.364 29 222.096C29 222.416 29 222.761 29 223.105C29 223.45 29 224.089 29 224.606L28.7485 226.919H23.0154L23.292 224.311C23.292 224.04 23.292 223.868 23.292 223.769C23.292 223.671 23.292 223.474 23.292 223.253V222.736C23.292 222.736 23.292 222.49 23.292 222.293C23.2722 222.148 23.2298 222.007 23.1663 221.875L22.9651 221.53C22.8822 221.414 22.7695 221.32 22.6382 221.26L22.1856 221.112C21.9938 221.085 21.799 221.085 21.6073 221.112C21.2697 221.107 20.9351 221.175 20.6266 221.309C20.3684 221.426 20.1373 221.593 19.9477 221.801C19.7546 222.043 19.6096 222.318 19.5202 222.613C19.4195 222.903 19.3356 223.199 19.2687 223.499C19.2687 223.769 19.2687 224.139 19.143 224.557L17.8354 236.713C17.8354 237.106 17.8354 237.451 17.8354 237.771C17.8166 238.264 17.8933 238.757 18.0617 239.223C18.3259 239.819 18.9627 240.17 19.6208 240.084C19.97 240.043 20.3052 239.925 20.6014 239.739C20.8452 239.622 21.0597 239.454 21.2301 239.247C21.427 239.013 21.5802 238.746 21.6827 238.46C21.7752 238.171 21.8425 237.874 21.8838 237.574C21.8838 237.328 21.8839 236.983 22.0347 236.565L22.3113 233.858H27.969L27.7427 236.122C27.6341 237.195 27.3978 238.252 27.0387 239.272C26.6895 240.173 26.1786 241.007 25.5299 241.732C24.8457 242.485 23.9818 243.06 23.0154 243.406C21.7805 243.83 20.4766 244.031 19.1681 243.996Z" fill="#4F4F4F"/>
<path d="M30 244L32.8665 217H38.7517L37.6101 227.926H41.9479L43.1148 217H49L46.1589 244H40.2483L41.5167 232.14H37.1535L35.9105 244H30Z" fill="#4F4F4F"/>
<path fill-rule="evenodd" clip-rule="evenodd" d="M57.1073 217L49 244H54.5738L56.0939 238.221H60.1475L60.4769 244H66L63.6945 217H57.1073ZM60.0717 234.689H57.1074L59.641 224.167L60.0717 234.689Z" fill="#4F4F4F"/>
<path d="M69 244L71.7561 217H77.439L75 240.013H81L80.6098 244H69Z" fill="#4F4F4F"/>
<path d="M83 244L85.7339 217H91.3468L89.0484 240.013H95L94.5887 244H83Z" fill="#4F4F4F"/>
<path d="M97 244L99.8632 217H112L111.595 221.012H105.311L104.627 227.8H109.466L109.035 231.888H104.171L103.334 240.013H109.618L109.188 244H97Z" fill="#4F4F4F"/>
<path d="M112 244L114.747 217H118.746L122.892 230.197L124.266 217H129L126.253 244H122.328L118.255 229.92L116.906 244H112Z" fill="#4F4F4F"/>
<path d="M137.365 243.991C136.212 244.037 135.064 243.819 134.011 243.352C133.154 242.962 132.441 242.318 131.973 241.508C131.478 240.608 131.158 239.625 131.029 238.608C130.99 238.06 130.99 237.51 131.029 236.961C131.032 236.262 131.082 235.564 131.178 234.872L132.097 226.147C132.214 224.843 132.481 223.556 132.892 222.312C133.26 221.269 133.807 220.296 134.508 219.437C135.217 218.621 136.123 217.996 137.141 217.618C138.376 217.179 139.682 216.971 140.993 217.003C142.222 216.989 143.443 217.198 144.596 217.618C145.482 217.912 146.26 218.459 146.832 219.191C147.352 219.925 147.699 220.765 147.851 221.649C147.954 222.208 148.004 222.776 148 223.345C148 223.812 148 224.328 148 224.844L147.826 226.466H142.111L142.31 224.426C142.31 223.836 142.31 223.295 142.31 222.804C142.34 222.37 142.187 221.943 141.887 221.624C141.541 221.282 141.058 221.11 140.57 221.157C140.218 221.148 139.868 221.224 139.552 221.378C139.008 221.641 138.608 222.126 138.458 222.706C138.35 223.01 138.267 223.322 138.21 223.64C138.21 223.91 138.21 224.254 138.061 224.696L136.818 236.593C136.794 236.936 136.794 237.281 136.818 237.625C136.806 237.862 136.806 238.1 136.818 238.338C136.837 238.815 137.032 239.27 137.365 239.616C137.737 239.949 138.231 240.118 138.732 240.083C140.322 240.083 141.216 238.878 141.49 236.445L141.788 233.569H139.303L139.626 229.907H147.329L145.888 243.548H142.111V241.287C141.219 243.047 139.352 244.111 137.365 243.991Z" fill="#4F4F4F"/>
<path d="M149 244L151.847 217H164L163.568 221.012H157.263L156.627 227.8H161.381L160.949 231.888H156.093L155.254 240.013H161.559L161.127 244H149Z" fill="#4F4F4F"/>
<path d="M175.337 244L176.505 233.023L173 217H178.537L180.289 225.781L183.641 217H189L182.219 233.023L181.051 244H175.337Z" fill="#4F4F4F"/>
<path fill-rule="evenodd" clip-rule="evenodd" d="M192.342 243.351C193.503 243.784 194.733 243.99 195.969 243.958C198.36 244.202 200.736 243.372 202.483 241.683C203.989 239.801 204.855 237.468 204.951 235.036L205.987 224.926V223.081C206.083 221.383 205.641 219.699 204.729 218.279C203.232 216.601 201.033 215.771 198.831 216.055C196.515 215.859 194.224 216.666 192.514 218.279C191.01 220.162 190.144 222.495 190.047 224.926L189.035 235.036C188.988 235.684 188.988 236.334 189.035 236.982C188.995 237.588 188.995 238.196 189.035 238.802C189.169 239.797 189.524 240.748 190.071 241.582C190.635 242.395 191.427 243.012 192.342 243.351ZM197.523 239.585C197.172 239.763 196.778 239.833 196.388 239.788C195.965 239.778 195.56 239.606 195.253 239.307C194.957 238.967 194.798 238.524 194.809 238.069V237.892V236.451L195.969 223.46C196.011 223.052 196.077 222.647 196.166 222.247C196.241 221.897 196.357 221.557 196.512 221.236C196.66 220.916 196.902 220.651 197.203 220.478C197.554 220.293 197.943 220.198 198.338 220.2C198.832 220.164 199.317 220.349 199.67 220.705C199.963 221.027 200.123 221.453 200.114 221.893V222.373C200.138 222.794 200.138 223.216 200.114 223.637L198.807 236.527C198.767 236.944 198.701 237.358 198.609 237.766C198.53 238.126 198.405 238.474 198.239 238.802C198.096 239.14 197.843 239.417 197.523 239.585Z" fill="#4F4F4F"/>
<path d="M218.922 243.423C217.667 243.827 216.352 244.02 215.032 243.995C213.742 244.035 212.457 243.832 211.243 243.398C210.337 243.081 209.556 242.489 209.009 241.706C208.475 240.88 208.14 239.944 208.03 238.969C207.99 238.414 207.99 237.857 208.03 237.302C208.033 236.595 208.083 235.888 208.181 235.188L210.113 217H215.861L213.853 236.009C213.816 236.381 213.816 236.756 213.853 237.128V237.377C213.867 237.78 213.926 238.181 214.028 238.571C214.085 238.918 214.274 239.23 214.556 239.442C214.89 239.682 215.297 239.805 215.71 239.79C216.05 239.799 216.387 239.722 216.689 239.566C216.959 239.423 217.197 239.229 217.392 238.994C217.578 238.727 217.722 238.434 217.818 238.123C217.932 237.791 218.016 237.45 218.069 237.103C218.153 236.744 218.203 236.377 218.22 236.009L220.228 217H226L224.067 235.188C223.955 236.471 223.703 237.739 223.315 238.969C222.984 239.975 222.455 240.905 221.759 241.706C221.001 242.539 220.016 243.136 218.922 243.423Z" fill="#4F4F4F"/>
<path fill-rule="evenodd" clip-rule="evenodd" d="M229.793 217.002L227 244L232.708 243.975L233.933 231.863H235.599L237.584 243.975H243.488L240.866 230.879C242.068 230.38 243.082 229.495 243.757 228.356C244.457 227.059 244.875 225.622 244.982 224.142C245.006 223.739 245.006 223.335 244.982 222.931C244.991 222.354 244.933 221.778 244.811 221.215C244.663 220.468 244.344 219.767 243.88 219.172C243.425 218.603 242.846 218.153 242.189 217.86C241.41 217.509 240.584 217.279 239.74 217.178C238.773 217.048 237.799 216.989 236.824 217.002H229.793ZM235.795 228.482H234.35L235.085 220.938H236.849C237.695 220.82 238.539 221.164 239.078 221.846C239.373 222.42 239.508 223.066 239.47 223.713C239.493 224.033 239.493 224.353 239.47 224.672C239.437 225.72 239.076 226.729 238.441 227.549C237.722 228.222 236.764 228.56 235.795 228.482Z" fill="#4F4F4F"/>
<path d="M253 244L255.956 217H262L258.991 244H253Z" fill="#4F4F4F"/>
<path d="M263 243.899L265.751 217H269.756L273.908 230.148L275.259 217H280L277.249 243.899H273.416L269.338 229.872L267.864 244L263 243.899Z" fill="#4F4F4F"/>
<path d="M282 243.899L284.772 217H288.771L292.916 230.148L294.266 217H299L296.253 243.899H292.426L288.354 229.872L286.882 244L282 243.899Z" fill="#4F4F4F"/>
<path d="M300 244L302.873 217H315L314.568 221.012H308.339L307.627 227.8H312.407L311.975 231.888H307.195L306.331 240.013H312.636L312.229 244H300Z" fill="#4F4F4F"/>
<path fill-rule="evenodd" clip-rule="evenodd" d="M317.768 217.002L315 244L320.904 243.975L322.129 231.863H323.82L325.78 243.975H331.488L328.867 230.879C330.069 230.38 331.083 229.495 331.758 228.356C332.468 227.064 332.887 225.624 332.983 224.142C333.006 223.739 333.006 223.335 332.983 222.931C332.984 222.353 332.918 221.777 332.787 221.215C332.639 220.468 332.32 219.767 331.856 219.172C331.401 218.603 330.822 218.153 330.165 217.86C329.386 217.509 328.56 217.279 327.715 217.178C326.749 217.048 325.775 216.989 324.8 217.002H317.768ZM323.795 228.482H322.35L323.085 220.938H324.849C325.695 220.82 326.54 221.164 327.078 221.846C327.373 222.42 327.509 223.066 327.47 223.713C327.494 224.033 327.494 224.353 327.47 224.672C327.437 225.72 327.076 226.729 326.441 227.549C325.722 228.222 324.765 228.56 323.795 228.482Z" fill="#4F4F4F"/>
<path d="M349.021 243.967C346.931 244.17 344.862 243.425 343.429 241.956C342.395 240.519 341.898 238.79 342.018 237.049C341.994 236.616 341.994 236.182 342.018 235.749L347.149 234.989C347.149 235.528 347.149 236.019 347.149 236.461C347.114 237.186 347.227 237.911 347.482 238.595C347.717 239.36 348.505 239.841 349.329 239.723C350.407 239.723 351.022 239.086 351.176 237.761C351.189 237.548 351.189 237.335 351.176 237.123C351.196 236.45 351.038 235.783 350.714 235.185C350.168 234.277 349.485 233.45 348.688 232.732L346.379 230.647C345.866 230.156 345.43 229.714 345.071 229.322C344.702 228.873 344.384 228.388 344.122 227.875C343.8 227.322 343.599 226.713 343.532 226.084C343.492 225.7 343.492 225.314 343.532 224.931C343.507 224.571 343.507 224.211 343.532 223.851C343.634 221.904 344.56 220.08 346.097 218.798C347.745 217.56 349.801 216.925 351.895 217.007C352.628 217 353.36 217.074 354.075 217.228C354.636 217.375 355.171 217.598 355.666 217.89C356.082 218.182 356.453 218.529 356.769 218.921C357.077 219.298 357.32 219.72 357.487 220.172C357.649 220.627 357.769 221.095 357.846 221.57C357.949 221.971 358.001 222.383 358 222.797V222.993C358 223.483 358 223.974 358 224.416L352.869 225.103C352.869 224.367 352.869 223.729 352.869 223.165C352.899 222.675 352.773 222.187 352.51 221.766C352.261 221.442 351.852 221.265 351.433 221.3C350.907 221.32 350.418 221.563 350.099 221.962C349.765 222.376 349.553 222.867 349.483 223.385C349.47 223.549 349.47 223.713 349.483 223.876C349.51 224.413 349.622 224.942 349.817 225.446C349.941 225.74 350.114 226.014 350.33 226.256C350.561 226.55 350.766 226.771 350.92 226.942C351.074 227.114 351.304 227.335 351.638 227.629L353.87 229.69C354.401 230.173 354.898 230.689 355.358 231.235C355.781 231.782 356.151 232.365 356.461 232.977C356.822 233.628 357.065 234.333 357.179 235.062C357.219 235.519 357.219 235.979 357.179 236.436C357.204 236.796 357.204 237.156 357.179 237.516C356.942 239.349 355.967 241.021 354.46 242.177C352.947 243.406 351.005 244.045 349.021 243.967Z" fill="#4F4F4F"/>
<path d="M359 244L361.847 217H374L373.568 221.012H367.314L366.627 227.8H371.381L370.949 231.888H366.169L365.331 240.013H371.636L371.203 244H359Z" fill="#4F4F4F"/>
<path d="M374 244L376.715 217H382.339L380.036 240.013H386L385.588 244H374Z" fill="#4F4F4F"/>
<path d="M388 244L390.732 217H402L401.488 220.987H395.902L395.195 227.876H400.073L399.634 231.964H394.756L393.537 244H388Z" fill="#4F4F4F"/>
<path fill-rule="evenodd" clip-rule="evenodd" d="M232.72 135.868C231.774 136.414 230.787 136.883 229.768 137.268V137.396C229.668 136.988 227.241 142.284 228.241 142.487C229.034 142.7 229.753 143.132 230.318 143.735C231.553 144.871 232.903 145.87 234.346 146.713C235.33 147.319 236.38 147.806 237.474 148.165C239.447 148.861 241.461 149.43 243.504 149.87C247.062 150.251 250.659 149.79 254.013 148.521C255.122 148.065 256.7 147.279 258.057 146.604C259.576 145.848 260.818 145.23 260.818 145.364C260.94 145.99 261.16 146.591 261.469 147.146C262.862 148.656 265.101 148.974 266.848 147.91C267.522 147.545 268.161 147.109 268.795 146.676C268.913 146.595 269.032 146.514 269.15 146.433C269.634 146.094 270.115 145.752 270.595 145.409C271.557 144.725 272.519 144.04 273.503 143.378C275.613 141.89 277.849 140.595 280.184 139.509C283.487 138.083 287.34 137.217 289.266 138.821C291.05 140.432 292.395 142.484 293.169 144.779C293.482 146.395 294.749 147.644 296.347 147.91C297.073 148.037 298.674 147.834 299.049 147.07C299.543 145.884 299.814 144.615 299.85 143.327C300.125 140.985 302.227 140.782 303.953 141.851C304.843 142.518 305.563 143.39 306.055 144.397C306.238 144.711 306.405 145.04 306.573 145.372C307.143 146.496 307.727 147.649 308.982 148.317C309.838 148.938 310.97 148.998 311.885 148.47C313.587 147.245 314.365 145.074 313.836 143.022C313.451 140.426 312.603 137.924 311.334 135.639C310.655 134.293 309.729 133.092 308.607 132.1C307.52 131.378 306.29 130.909 305.004 130.725C302.995 130.332 300.917 130.545 299.024 131.336C298.198 131.837 297.304 132.215 296.372 132.456C295.904 132.456 294.983 131.574 294.14 130.766C293.811 130.45 293.493 130.146 293.219 129.911C291.085 128.041 288.161 127.408 285.463 128.23C283.603 128.834 281.788 129.574 280.034 130.445C279.7 130.584 279.356 130.73 279.007 130.876C277.763 131.401 276.472 131.946 275.455 132.304C274.154 132.762 273.528 132.329 272.678 131.362C272.025 130.54 271.158 129.923 270.176 129.58C268.801 129.447 267.434 129.899 266.398 130.827C265.556 131.547 264.785 132.349 264.096 133.22C263.564 133.817 263.043 134.427 262.521 135.038C261.617 136.097 260.71 137.159 259.742 138.159C258.763 139.121 257.736 140.03 256.665 140.883C255.051 142.295 253.012 143.104 250.885 143.175C249.609 143.149 249.134 143.047 248.758 142.538C249.898 141.645 250.992 140.693 252.036 139.687C253.895 138.086 255.419 136.121 256.515 133.908C257.442 132.152 257.316 130.014 256.189 128.383C255.445 127.395 254.424 126.658 253.262 126.27C249.391 125.562 245.399 126.256 241.978 128.23C238.606 130.394 235.498 132.958 232.72 135.868ZM240.777 138.694C242.232 136.31 244.752 134.814 247.507 134.697V134.799C249.434 134.722 249.284 136.861 247.958 137.879C246.678 139.274 244.962 140.173 243.104 140.425C242.366 140.423 241.638 140.249 240.977 139.916C240.777 139.814 240.627 138.999 240.777 138.694Z" fill="#4F4F4F"/>
<path d="M37.879 130.888C38.7329 130.485 39.6371 130.107 40.3906 129.653C42.4066 128.523 44.7655 128.173 47.0211 128.67C48.1002 129.04 49.0447 129.724 49.7336 130.636C50.9894 132.173 51.8182 138.197 56.6405 138.02C58.4084 137.91 60.1272 137.393 61.6636 136.508C63.5473 135.273 65.4561 134.189 67.2393 132.803C69.0225 131.417 70.856 129.502 71.6597 128.796C73.0913 127.637 77.2354 126.654 78.3656 128.065C79.5483 129.622 80.5431 131.314 81.3292 133.106C83.5394 138.549 86.5031 136.13 87.1058 135.626C88.1607 134.895 87.6835 134.089 87.357 132.828C87.182 132.307 86.9636 131.801 86.704 131.316C86.704 131.089 84.971 127.687 85.9254 125.999C86.6824 124.696 88.2225 124.074 89.6676 124.486C89.9478 124.487 90.2236 124.557 90.4713 124.688C91.5268 125.43 92.9321 125.43 93.9876 124.688C94.8904 124.248 95.8218 123.869 96.7754 123.554C98.8743 122.7 101.245 122.839 103.23 123.932C104.089 124.416 104.722 125.223 104.988 126.175C105.099 127.58 104.421 128.931 103.23 129.678C102.327 130.077 101.371 130.34 100.392 130.459C99.4377 130.636 98.433 130.459 97.4786 130.737C96.6985 130.921 96.0932 131.539 95.9215 132.324C95.5917 133.397 95.7001 134.558 96.2229 135.55C97.1521 137.466 98.1568 139.356 98.9354 141.347C99.9249 143.557 99.2076 146.161 97.2275 147.547C95.9997 148.151 94.5623 148.151 93.3345 147.547C92.0285 146.816 91.2751 145.027 90.4462 143.968C89.3411 142.431 87.5579 142.179 85.6491 143.842C84.3641 144.996 82.9864 146.041 81.5301 146.967C79.7218 148.101 77.1349 146.06 75.7786 144.069C75.0754 143.01 74.2968 141.977 73.5936 140.919C73.1415 140.263 70.8057 141.851 69.7509 142.431C67.3779 143.734 64.9383 144.912 62.4422 145.959C58.3821 147.535 53.8644 147.426 49.8843 145.657C47.508 144.531 45.3879 142.927 43.6556 140.944C42.8662 140.372 41.938 140.024 40.9682 139.936C39.1938 139.675 37.3887 140.128 35.9451 141.196C33.0568 143.136 37.7032 130.938 37.7785 130.989" fill="#4F4F4F"/>
<path d="M180.434 145.05C179.96 146.045 179.036 146.766 177.936 146.999C176.976 147.12 176.023 146.73 175.439 145.976C174.603 144.486 173.677 143.046 172.666 141.664C170.468 139.032 169.319 137.4 165.173 138.204C163.254 138.668 161.395 139.338 159.628 140.202C157.554 141.152 155.506 142.93 153.483 143.954C152.184 144.636 150.985 145.611 149.711 146.39C148.433 147.07 147.062 147.571 145.64 147.876C144.738 148.121 143.774 148 142.965 147.541C142.157 147.082 141.572 146.325 141.344 145.44C140.944 144.417 140.519 144.295 139.57 144.831C138.621 145.367 137.847 145.903 137.072 146.317C135.399 147.072 134.774 146.829 133.076 145.294C132.102 144.392 125.582 132.795 127.281 130.407C128.336 128.498 130.62 127.573 132.751 128.19C133.689 128.475 134.477 129.104 134.949 129.944C135.948 131.796 137.247 133.453 138.421 135.207C138.845 136.111 139.578 136.843 140.494 137.278C140.805 137.409 141.158 137.409 141.468 137.278C142.127 136.854 142.703 136.317 143.167 135.694C144.239 133.793 145.888 132.261 147.888 131.309C149.727 130.504 151.887 130.913 153.283 132.332C154.097 133.21 155.399 133.475 156.505 132.99C158.429 132.259 160.227 131.26 162.1 130.553C164.336 129.475 166.8 128.924 169.294 128.945C171.891 129.258 174.276 130.5 175.988 132.429C177.191 133.627 178.285 134.923 179.26 136.303C180.495 137.792 181.11 139.68 180.984 141.59C180.894 142.763 180.676 143.923 180.334 145.05" fill="#4F4F4F"/>
<path d="M325.65 48.7504C325.096 47.1098 324.543 45.668 324.116 44.1764C324.09 43.7482 324.256 43.3303 324.568 43.033C326.105 41.3003 327.238 39.2552 327.888 37.042C328.419 34.9195 328.513 32.7131 328.164 30.5539C327.784 27.2457 326.768 24.0396 325.172 21.1076C323.785 18.5016 321.897 16.188 319.615 14.2964C318.408 13.2772 317.326 12.1834 316.119 11.1642C315.415 10.5924 314.636 10.1201 313.907 9.62296C312.373 8.62862 310.939 7.50998 309.33 6.66479C306.372 5.26471 303.322 4.06055 300.202 3.06028C297.361 2.48854 294.494 2.01622 291.703 1.61848C287.508 1.47667 283.309 1.60122 279.13 1.99136C276.616 2.33938 273.9 2.83656 271.285 3.20944C270.757 3.20944 269.952 3.20944 270.002 2.61283C270.167 2.09077 270.581 1.68196 271.109 1.51905C272.273 1.22972 273.459 1.03025 274.654 0.922443C277.37 0.62414 280.086 0.325836 282.801 0.102108C287.109 -0.0727736 291.424 -0.0229872 295.726 0.25126C299.38 0.735133 303.006 1.40723 306.589 2.26481C309.998 3.19318 313.355 4.29674 316.648 5.57101C318.723 6.58524 320.731 7.73112 322.657 9.0015C325.225 10.8742 327.662 12.9173 329.95 15.1167C331.182 16.5585 332.464 18.0252 333.52 19.5913C335.748 22.6741 337.204 26.2351 337.77 29.9822C338.026 31.8441 338.069 33.7289 337.896 35.6002C337.632 37.7934 337.048 39.9371 336.161 41.964C335.41 43.486 334.243 44.7693 332.791 45.668C331.483 46.6623 330.075 47.5324 328.717 48.4273C327.792 49.0528 326.61 49.1743 325.574 48.7504" fill="#4F4F4F"/>
<path d="M318.683 43.4376C319.395 43.2937 320.107 43.6832 320.363 44.3566C321.027 45.8049 321.177 47.4329 320.789 48.9765C320.789 49.2248 320.463 49.4732 320.212 49.5974C318.816 50.1935 317.319 50.5222 315.799 50.5661C314.194 50.5661 312.564 50.9387 310.934 50.9883C310.203 51.0413 309.471 50.9133 308.803 50.6158C308.447 50.4612 308.18 50.1577 308.073 49.7879C307.966 49.4181 308.031 49.0205 308.251 48.7032C308.552 48.1568 309.003 47.66 309.279 47.1136C310.111 45.6555 310.807 44.1258 311.36 42.5434C311.901 40.5214 311.613 38.3696 310.558 36.5574C308.553 33.5562 305.865 31.0634 302.709 29.2799C299.744 27.6273 296.481 26.5642 293.105 26.1503C290.798 25.8025 288.44 25.728 286.158 25.3306C283.874 25.2637 281.763 24.1071 280.491 22.2258C279.839 21.0088 279.262 19.742 278.736 18.5001C277.665 15.7794 275.74 13.4718 273.244 11.918C271.539 10.9245 269.733 10.1545 268.028 9.18585C267.509 8.83438 267.142 8.30246 267 7.69557C267 6.97527 267.677 7.0001 268.154 7.0001C271.769 7.18371 275.219 8.55592 277.958 10.8997C279.789 12.2658 281.595 13.6567 283.35 15.0973C284.359 15.9314 285.298 16.8451 286.158 17.8295C286.77 18.4812 287.618 18.8654 288.516 18.8975C291.023 19.295 293.28 19.6675 295.688 19.9904C297.861 20.4087 299.969 21.1103 301.957 22.0768C305.403 23.3425 308.614 25.1636 311.461 27.4667C313.24 29.1074 314.731 31.0296 315.874 33.1546C317.503 35.8689 318.425 38.9415 318.557 42.0963C318.557 42.5434 318.557 42.9656 318.557 43.4624" fill="#4F4F4F"/>
<path d="M298.349 52.3792C295.16 52.0299 291.199 51.3312 282.057 50.932C277.922 50.7573 273.787 50.932 269.602 51.1066C266.089 51.2813 262.577 51.5807 259.089 52.1047C250.67 53.4866 242.379 55.5648 234.303 58.3181C227.486 60.4331 220.901 63.2338 214.648 66.6773C213.078 67.4509 211.609 68.3991 210.089 69.1727C208.046 70.3454 205.954 71.4434 203.911 72.6661C201.868 73.8888 199.427 75.6604 197.135 77.0578C196.164 77.6567 189.662 81.5993 187.545 83.0466C185.053 84.7683 182.338 86.4901 179.698 88.0372C178.477 88.8107 177.206 89.3347 175.836 90.0334C174.068 90.9567 172.324 91.9548 170.53 92.903C168.737 93.8512 167.242 94.5749 165.548 95.3983C163.057 96.5212 160.416 97.6192 157.826 98.6672C155.235 99.7152 153.117 100.489 150.776 101.437C149.53 101.936 138.071 106.028 137.473 105.978C135.854 106.153 135.356 105.23 137.075 104.531C138.221 104.032 139.367 103.558 140.537 103.134C142.182 102.535 143.9 102.061 145.52 101.437C147.139 100.813 154.961 98.0434 157.004 97.1451C161.388 95.2736 165.698 93.2274 170.032 91.2561C179.822 86.6398 203.737 68.3492 225.758 59.5408C228.075 58.5426 237.491 55.3986 239.883 54.7248C240.605 54.5252 241.278 54.2008 242 54.0261C244.491 53.3774 246.982 52.7286 249.473 52.1796C251.965 51.6306 260.235 50.3331 261.58 50.1335C270.347 49.171 279.17 48.8208 287.986 49.0854C290.726 49.3599 293.466 49.5595 296.182 49.834L304.178 50.6575C305.025 50.6575 305.249 51.1565 304.701 51.8053C303.929 52.8533 300.018 52.5539 298.374 52.3792" fill="#4F4F4F"/>
<path d="M132.921 98.1054C139.709 94.6427 146.124 90.5778 152.563 86.4627C157.555 83.3513 162.122 79.738 166.839 76.3004C169.335 74.5189 171.831 72.7374 174.102 70.8053C181.589 64.457 189.301 58.0334 196.864 51.635C201.331 47.8712 205.749 44.1074 210.216 40.2181C212.962 37.9097 215.707 35.6012 218.527 33.3931C220.674 31.6868 222.895 30.0559 225.116 28.3747C227.936 26.3924 230.707 24.3349 233.627 22.5534C237.246 20.3453 241.114 18.363 244.708 16.3305C247.204 14.9254 249.949 13.5704 252.595 12.2405C254.542 11.262 256.538 10.3837 258.51 9.48043C259.745 8.81467 261.063 8.31684 262.428 8C263.177 8 263.027 8.65239 262.878 8.82804C261.672 9.91443 260.275 10.7654 258.76 11.3372C255.74 12.7424 250.823 15.2265 248.951 16.0545C241.308 19.9075 233.876 24.171 226.688 28.8264C224.617 30.3319 218.402 35.2248 217.379 36.1281C209.542 43.0786 201.755 50.0793 194.068 56.8039C191.572 58.9117 189.276 61.0696 186.83 63.1522C184.384 65.2348 177.796 70.8554 176.847 71.6584C174.077 73.8163 171.281 75.8989 168.461 78.0067C165.641 80.1144 163.02 82.1469 160.25 84.104C158.553 85.3084 150.092 90.5778 147.596 92.0833C145.1 93.5888 138.661 96.9762 134.019 99.3349C131.698 100.514 129.027 100.138 133.145 98.1054" fill="#4F4F4F"/>
<path d="M126.793 119.431C127.901 118.856 129.173 118.856 130.282 119.431C130.905 119.757 131.416 120.311 131.733 121.005C132.116 121.973 132.085 123.088 131.651 124.026C131.216 124.965 130.426 125.623 129.509 125.809C128.076 126.309 126.519 125.808 125.528 124.528C125.234 124.137 125.054 123.652 125.013 123.14C124.935 122.167 125.214 121.2 125.786 120.472C126.077 120.095 126.416 119.772 126.793 119.511" fill="#4F4F4F"/>
<path d="M339.107 121.43C340.355 120.857 341.79 120.857 343.039 121.43C343.749 121.749 344.333 122.299 344.695 122.991C345.136 123.97 345.097 125.099 344.589 126.044C344.081 126.989 343.163 127.641 342.108 127.805C340.488 128.311 338.725 127.812 337.606 126.53C337.264 126.148 337.055 125.664 337.011 125.151C336.935 124.199 337.253 123.257 337.891 122.549C338.216 122.168 338.6 121.843 339.029 121.586" fill="#4F4F4F"/>
<path d="M163.608 160.126C161.923 160.126 160.436 160.126 159.494 160.126C156.297 160.317 153.124 160.508 149.952 160.795C145.763 161.177 141.599 161.583 137.559 162.085C134.61 162.419 131.685 162.921 128.76 163.446C126.431 163.876 124.15 164.449 121.845 164.951C119.54 165.453 116.715 165.978 114.211 166.647C110.989 167.483 107.842 168.486 104.669 169.465C104.283 169.668 104.031 170.046 104 170.469C104.993 170.93 106.106 171.096 107.197 170.946C124.922 165.755 143.348 163.123 161.873 163.136C164.352 163.136 165.095 162.586 165.715 161.726C166.335 160.867 166.062 159.911 163.707 160.007" fill="#4F4F4F"/>
<path d="M402.898 132.801C399.304 133.215 395.836 134.383 392.722 136.229C392.255 136.643 391.622 136.811 391.012 136.683C390.403 136.555 389.89 136.145 389.629 135.579C388.497 132.723 385.964 130.665 382.944 130.149C378.604 129.599 375.037 131.675 372.692 132.401C371.141 132.95 369.494 133.172 367.853 133.052C367.54 132.997 367.247 132.859 367.005 132.651C366.015 131.782 364.683 131.413 363.389 131.65C361.194 132.001 357.053 137.806 356.18 138.857C355.307 139.908 354.434 139.082 353.86 138.356C353.287 137.631 350.219 132.951 348.872 131.025C347.934 129.424 346.042 128.654 344.257 129.148C342.851 129.466 341.65 130.378 340.965 131.65C340.253 133.067 340.253 134.738 340.965 136.154C342.389 139.361 344.109 142.427 346.103 145.312C346.993 146.651 348.592 147.329 350.169 147.039C351.367 146.814 352.543 146.487 353.686 146.063C355.482 145.412 355.407 145.387 356.579 146.864C357.123 147.54 357.851 148.044 358.674 148.315C359.939 148.595 361.263 148.371 362.366 147.689C363.987 146.764 371.271 141.959 372.618 141.409C377.357 138.907 379.302 138.907 380.4 139.607C381.357 140.046 382.058 140.906 382.296 141.934C382.62 143.611 382.146 145.087 383.044 146.588C383.64 147.682 384.728 148.419 385.962 148.565C387.007 148.826 388.112 148.654 389.03 148.09C391.193 146.096 393.511 144.28 395.964 142.66C405.468 136.88 409.134 140.883 406.69 147.164C404.121 154.17 387.035 181.294 315.124 182.921C270.75 183.921 219.916 160.926 176.715 159.8C176.565 159.8 171.552 159.5 171.028 161.326C170.654 162.578 174.121 163.028 175.867 163.153C183.488 163.666 191.075 164.61 198.59 165.981C227.025 169.784 266.834 186.273 314.051 188C389.903 188 410.456 154.696 411.529 153.119C416.517 145.913 418.014 131.775 402.898 132.801Z" fill="#4F4F4F"/>
<path d="M123.964 137.071C122.112 133.643 120.459 130.116 119.012 126.507C117.133 121.547 116.193 119.861 120.384 115.422C122.923 112.818 128.586 109.247 127.824 106.42C127.824 106.172 127.672 105.478 127.012 105.329C125.006 104.883 118.123 109.198 116.701 109.148C114.416 108.355 116.396 103.99 116.701 103.593C118.25 100.915 121.044 94.3929 118.809 93.3018C114.67 91.2435 110.022 100.27 107.254 103.568C105.73 105.329 104.537 106.048 104.105 108.379C103.216 113.165 108.219 124.945 109.565 128.218C110.911 131.492 112.511 134.691 114.238 137.939C116.822 142.993 119.91 147.786 123.456 152.248C125.006 154.182 127.088 154.728 128.536 152.794C130.44 150.314 125.996 141.014 124.066 137.046" fill="#4F4F4F"/>
<path d="M335.937 137.071C334.098 133.638 332.447 130.112 330.992 126.507C329.14 121.547 328.177 119.861 332.361 115.422C334.897 112.818 340.553 109.247 339.792 106.42C339.792 106.172 339.64 105.478 339.006 105.329C336.977 104.883 330.129 109.198 328.684 109.148C326.401 108.355 328.379 103.99 328.684 103.593C330.256 100.915 333.02 94.3929 330.789 93.3018C326.68 91.2435 322.014 100.27 319.25 103.568C317.753 105.329 316.561 106.048 316.105 108.379C315.217 113.165 320.213 124.945 321.557 128.218C322.946 131.537 324.512 134.782 326.249 137.939C328.82 142.998 331.904 147.792 335.455 152.248C337.002 154.182 339.056 154.728 340.527 152.794C342.455 150.314 337.991 141.014 336.064 137.046" fill="#4F4F4F"/>
<path d="M26.3332 100.183C32.0056 100.183 32.5032 102.444 32.4286 104.052C32.4286 105.082 31.8812 106.564 29.2938 106.564C25.6614 106.564 18.322 106.062 16.1078 110.056C14.6648 113.498 17.8493 115.458 18.8445 116.086C24.8653 119.879 35.3146 123.798 38.4245 127.542C39.5796 128.941 40.3744 130.606 40.7383 132.39C42.1031 140.371 38.0337 148.291 30.7866 151.76C23.323 154.96 14.8497 154.722 7.57421 151.107C5.73315 150.278 -0.934489 147.514 0.110439 143.57C0.20774 142.778 0.609896 142.056 1.23001 141.56C3.19547 139.927 7.69861 142.917 13.794 144.374C23.4721 147.138 27.2786 145.907 29.7914 144.123C40.7134 134.576 11.5549 130.029 7.40006 116.161C6.02487 112.004 7.37805 107.422 10.7836 104.705C15.4609 100.082 24.517 99.8814 26.4824 100.032" fill="#4F4F4F"/>
<path d="M216.332 100.183C222.005 100.183 222.502 102.444 222.428 104.052C222.428 105.082 221.88 106.564 219.292 106.564C215.66 106.564 208.32 106.062 206.105 110.056C204.662 113.498 207.847 115.458 208.842 116.086C214.863 119.879 225.314 123.798 228.424 127.542C229.579 128.941 230.374 130.606 230.738 132.39C232.103 140.371 228.033 148.291 220.785 151.76C213.321 154.96 204.847 154.722 197.57 151.107C195.729 150.278 189.086 147.514 190.106 143.57C190.213 142.781 190.613 142.063 191.226 141.56C193.216 139.927 197.695 142.917 203.667 144.374C213.371 147.138 217.178 145.907 219.666 144.123C230.564 134.576 201.427 130.029 197.272 116.161C195.897 112.004 197.25 107.422 200.656 104.705C205.334 100.082 214.391 99.8814 216.356 100.032" fill="#4F4F4F"/>
</svg>
